<svg class="footer-social-amoeba-svg" id="Livello_1" data-name="Livello 1" xmlns="http://www.w3.org/2000/svg" viewBox="0 0 182.12 54"><defs><style>.cls-1{fill:#202838;}</style></defs><path class="cls-1" d="M63.49,49.15c-.08-3.8-8-8.87-7-24.59S74.12,0,85.23,0,105.89,9.9,108,12.6s7.65,14,4,23.94-1.85,16.09,4.9,16.51,7.7-6.81,6.11-13.9,2-14,4.07-16.69a21.65,21.65,0,0,1,18.31-9.18c11.12,0,15.68,5.69,19.12,11.19A18.94,18.94,0,0,1,167.15,33c.26,3-2,9.21-3.85,13.31s3,7.68,6.89,7,5.62-9.31,4.06-15.91,2-14,4.07-16.7,9.46-12.7,24.74-9.91c21.87,4.06,19.23,25.33,20,32.53S235.47,54,236,54H53.88C64.44,52,63.49,49.15,63.49,49.15Z" transform="translate(-53.88)"/></svg>
