<?xml version="1.0" encoding="utf-8"?>
<!-- Generator: Adobe Illustrator 23.0.1, SVG Export Plug-In . SVG Version: 6.00 Build 0)  -->
<svg version="1.1" id="Livello_1" xmlns="http://www.w3.org/2000/svg" xmlns:xlink="http://www.w3.org/1999/xlink" x="0px" y="0px"
	 viewBox="0 0 284 87.4" style="enable-background:new 0 0 284 87.4;" xml:space="preserve">
<style type="text/css">
	.st0{fill:#FFFFFF;}
</style>
<path class="st0" d="M74.7,32.3c-0.6-2-1.5-4-2.5-5.8c-4.7-8.8-13.1-15-22.8-17.2c-2.4-0.5-4.8-0.8-7.3-0.8h-0.6
	c-2.5,0.1-5.1,0.4-7.5,1C15.8,13.9,4.5,32.4,9,50.7c3.7,15.2,17.2,26,32.9,26.1h0.3c2.7,0,5.3-0.3,7.9-0.9c0.8-0.2,1.5-0.4,2.2-0.6
	c2-0.6,4-1.4,5.8-2.4c6.2-3.3,11.3-8.4,14.5-14.7c1.2-2.4,2.1-4.9,2.8-7.5C76.8,44.6,76.6,38.2,74.7,32.3L74.7,32.3z M31.4,17
	c-0.6,2.6-0.9,5.3-0.9,8c0,0.5,0,1,0,1.5c-3.2-1-6.5-1.5-9.8-1.5C23.5,21.5,27.2,18.7,31.4,17z M16.2,52.6
	c-2.6-6.9-2.4-14.5,0.5-21.2c1.2-0.2,2.5-0.2,3.7-0.3c8.3,0,16.1,3.7,21.4,10c-5.2,7.3-13.7,11.6-22.6,11.6
	C18.1,52.8,17.1,52.7,16.2,52.6z M45.9,70.3c-10.1,1.3-20.2-3-26.2-11.2c8.2-0.1,16.1-3.2,22.2-8.7c1.3-1.1,2.4-2.3,3.5-3.6
	c1.2,2.5,2.1,5.2,2.5,7.9c0.2,1.4,0.3,2.9,0.3,4.4C48.2,62.9,47.4,66.7,45.9,70.3L45.9,70.3z M51.4,44.8c-1.6-3.5-3.8-6.6-6.4-9.4
	c-2.3-2.4-5-4.5-7.9-6.1c-0.2-1.4-0.3-2.9-0.3-4.4c0-3.4,0.6-6.7,1.8-9.9c1.2-0.2,2.4-0.2,3.7-0.3c1,0,2,0.1,3,0.2
	c2.4,0.3,4.8,0.8,7.1,1.7c6,2.3,11,6.6,14.2,12.2C59.8,32.4,54.5,37.9,51.4,44.8L51.4,44.8z M68.3,52.6c-2.3,6.2-6.8,11.3-12.6,14.5
	c-0.8,0.4-1.6,0.8-2.4,1.2c0.8-3,1.3-6.1,1.3-9.1c0-0.5,0-1,0-1.5h0.1c0.5-9.6,5.9-18.3,14.3-22.9C70.6,40.5,70.4,46.8,68.3,52.6
	L68.3,52.6z"/>
<path class="st0" d="M105.6,56.7c-2,0-3.9-0.3-5.7-1.1c-1.7-0.7-3.3-1.7-4.6-3c-1.3-1.3-2.4-2.8-3.1-4.5c-2.3-5.3-1.1-11.6,3.1-15.6
	c1.3-1.3,2.9-2.3,4.6-3c1.8-0.7,3.7-1.1,5.7-1.1c1.5,0,3,0.2,4.4,0.6c1.4,0.4,2.7,1,3.9,1.8c1.2,0.7,2.2,1.7,3.1,2.8l-3.8,3.8
	c-0.9-1.2-2.1-2.1-3.4-2.8c-1.3-0.6-2.7-0.9-4.2-0.9c-1.2,0-2.4,0.2-3.4,0.7c-2.1,0.9-3.8,2.6-4.6,4.7c-0.5,1.1-0.7,2.3-0.7,3.5
	c0,1.2,0.2,2.4,0.7,3.5c0.4,1.1,1.1,2,1.9,2.8c0.8,0.8,1.8,1.4,2.8,1.9c1.1,0.5,2.3,0.7,3.5,0.7c1.4,0,2.8-0.3,4-0.9
	c1.3-0.6,2.4-1.5,3.3-2.6l3.7,3.7c-0.9,1.1-1.9,2-3.1,2.7C111.3,55.9,108.4,56.7,105.6,56.7L105.6,56.7z"/>
<path class="st0" d="M133.1,56.8c-1.9,0-3.9-0.3-5.7-1.1c-1.7-0.7-3.3-1.7-4.6-3c-1.3-1.3-2.4-2.8-3.1-4.5c-1.5-3.5-1.5-7.5,0-11.1
	c0.7-1.7,1.8-3.2,3.1-4.5c1.3-1.3,2.9-2.3,4.6-3c1.8-0.7,3.7-1.1,5.7-1.1c2,0,3.9,0.3,5.7,1.1c1.7,0.7,3.3,1.7,4.6,3
	c5.5,5.5,5.6,14.4,0.2,19.9c-0.1,0.1-0.1,0.1-0.2,0.2c-1.3,1.3-2.9,2.3-4.6,3C136.9,56.4,135,56.8,133.1,56.8z M133.1,51.6
	c3.5,0,6.7-2.1,8-5.4c0.9-2.3,0.9-4.8,0-7.1c-1.8-4.4-6.9-6.6-11.3-4.7c0,0-0.1,0-0.1,0c-1,0.4-2,1.1-2.7,1.9
	c-0.8,0.8-1.4,1.8-1.8,2.8c-0.4,1.1-0.7,2.3-0.7,3.5c0,1.2,0.2,2.4,0.7,3.6c0.4,1.1,1,2,1.8,2.8c0.8,0.8,1.7,1.4,2.7,1.9
	C130.7,51.3,131.9,51.6,133.1,51.6z"/>
<path class="st0" d="M151.5,56.3V28.9h13.4c1.7,0,3.4,0.3,4.9,1.1c2.8,1.4,4.6,4.3,4.5,7.4c0,1.7-0.5,3.3-1.4,4.6
	c-1,1.4-2.3,2.4-3.9,3l6,11.3h-6.3l-5.4-10.5h-6.2v10.5H151.5z M157.1,41.2h7.2c1.1,0.1,2.2-0.3,3.1-1c1.5-1.4,1.6-3.7,0.2-5.1
	c-0.1-0.1-0.1-0.1-0.2-0.2c-0.9-0.7-2-1.1-3.1-1h-7.2V41.2z"/>
<path class="st0" d="M175.8,56.3l11.3-27.4h6.5l11.1,27.4h-6.1l-2.8-7.2h-11.3l-2.8,7.2H175.8z M186.3,44.6h7.8l-3.9-10.1
	L186.3,44.6z"/>
<path class="st0" d="M207.1,56.3V28.9h5.7v22.4h15v5L207.1,56.3z"/>
<path class="st0" d="M231.7,56.3V28.9h5.7v22.4h15v5L231.7,56.3z"/>
<path class="st0" d="M259,56.3V45.9l-11.2-16.9h6.5l7.7,11.9l7.7-11.9h6.3l-11.2,16.9v10.5H259z"/>
</svg>
